<svg height="504pt" viewBox="0 -44 504 504" width="504pt" xmlns="http://www.w3.org/2000/svg"><path d="m411.859375 372.625c-2.207031 0-4-1.792969-4-4v-271.210938c0-25.363281-20.632813-46-46-46h-219.71875c-25.367187 0-46 20.636719-46 46v271.210938c0 2.207031-1.792969 4-4 4s-4-1.792969-4-4v-271.210938c0-29.773437 24.222656-54 54-54h219.71875c29.777344 0 54 24.226563 54 54v271.210938c0 2.207031-1.792969 4-4 4zm0 0" fill="#690589"/><path d="m296.722656 90.835938h-89.449218c-23.976563 0-43.414063-19.441407-43.414063-43.421876 0-23.976562 19.4375-43.414062 43.414063-43.414062h89.449218c23.980469 0 43.417969 19.4375 43.417969 43.414062 0 23.980469-19.4375 43.421876-43.417969 43.421876zm0 0" fill="#fcc24c"/><path d="m136.867188 412.039062h-89.453126c-23.976562 0-43.414062-19.4375-43.414062-43.414062 0-23.980469 19.4375-43.417969 43.414062-43.417969h89.453126c23.976562 0 43.417968 19.4375 43.417968 43.417969 0 23.976562-19.441406 43.414062-43.417968 43.414062zm0 0" fill="#fcc24c"/><path d="m47.414062 412.039062h20c-23.976562 0-43.414062-19.4375-43.414062-43.414062 0-23.980469 19.4375-43.417969 43.414062-43.417969h-20c-23.976562 0-43.414062 19.4375-43.414062 43.417969 0 23.976562 19.4375 43.414062 43.414062 43.414062zm0 0" fill="#fce06a"/><path d="m207.277344 90.835938h20c-23.980469 0-43.417969-19.441407-43.417969-43.421876 0-23.976562 19.4375-43.414062 43.417969-43.414062h-20c-23.980469 0-43.417969 19.4375-43.417969 43.414062 0 23.980469 19.4375 43.421876 43.417969 43.421876zm0 0" fill="#fce06a"/><path d="m152.359375 199.824219c0 33.257812-26.960937 60.21875-60.21875 60.21875s-60.214844-26.960938-60.214844-60.21875c0-33.257813 26.957031-60.21875 60.214844-60.21875s60.21875 26.960937 60.21875 60.21875zm0 0" fill="#7bac51"/><path d="m136.867188 416.039062h-89.453126c-26.140624 0-47.414062-21.269531-47.414062-47.414062 0-26.148438 21.273438-47.417969 47.414062-47.417969h89.453126c26.144531 0 47.417968 21.273438 47.417968 47.417969s-21.273437 47.414062-47.417968 47.414062zm-89.453126-86.832031c-21.730468 0-39.414062 17.683594-39.414062 39.417969s17.683594 39.414062 39.414062 39.414062h89.453126c21.734374 0 39.417968-17.679687 39.417968-39.414062s-17.683594-39.417969-39.417968-39.417969zm0 0" fill="#690589"/><path d="m456.585938 412.039062h-89.453126c-23.976562 0-43.414062-19.4375-43.414062-43.414062 0-23.980469 19.4375-43.417969 43.414062-43.417969h89.453126c23.976562 0 43.414062 19.4375 43.414062 43.417969 0 23.976562-19.4375 43.414062-43.414062 43.414062zm0 0" fill="#fcc24c"/><path d="m456.585938 325.207031h-20c23.976562 0 43.414062 19.4375 43.414062 43.417969 0 23.976562-19.4375 43.414062-43.414062 43.414062h20c23.976562 0 43.414062-19.4375 43.414062-43.414062 0-23.980469-19.4375-43.417969-43.414062-43.417969zm0 0" fill="#dea42e"/><path d="m296.722656 4h-20c23.980469 0 43.417969 19.4375 43.417969 43.414062 0 23.980469-19.4375 43.421876-43.417969 43.421876h20c23.980469 0 43.417969-19.441407 43.417969-43.421876 0-23.976562-19.4375-43.414062-43.417969-43.414062zm0 0" fill="#dea42e"/><g fill="#690589"><path d="m456.582031 416.039062h-89.449219c-26.144531 0-47.417968-21.269531-47.417968-47.414062s21.273437-47.417969 47.417968-47.417969h89.449219c26.144531 0 47.417969 21.273438 47.417969 47.417969s-21.273438 47.414062-47.417969 47.414062zm-89.449219-86.832031c-21.734374 0-39.417968 17.679688-39.417968 39.414063s17.683594 39.417968 39.417968 39.417968h89.449219c21.734375 0 39.417969-17.683593 39.417969-39.417968s-17.683594-39.414063-39.417969-39.414063zm0 0"/><path d="m296.722656 94.835938h-89.449218c-26.144532 0-47.417969-21.273438-47.417969-47.417969s21.273437-47.417969 47.421875-47.417969h89.449218c26.144532 0 47.414063 21.273438 47.414063 47.414062 0 26.144532-21.269531 47.421876-47.417969 47.421876zm-89.445312-86.835938c-21.734375 0-39.417969 17.683594-39.417969 39.414062 0 21.734376 17.683594 39.417969 39.417969 39.417969h89.449218c21.734376 0 39.414063-17.683593 39.414063-39.417969 0-21.730468-17.679687-39.414062-39.414063-39.414062zm0 0"/><path d="m181.042969 51.414062c-2.207031 0-4-1.789062-4-4 0-10.246093 4.375-20.074218 12-26.964843 1.640625-1.484375 4.167969-1.351563 5.648437.285156 1.480469 1.636719 1.351563 4.167969-.289062 5.648437-5.949219 5.378907-9.359375 13.042969-9.359375 21.03125 0 2.210938-1.789063 4-4 4zm0 0"/></g><path d="m472.074219 199.824219c0 33.257812-26.957031 60.21875-60.214844 60.21875s-60.21875-26.960938-60.21875-60.21875c0-33.257813 26.960937-60.21875 60.21875-60.21875s60.214844 26.960937 60.214844 60.21875zm0 0" fill="#ff4397"/><path d="m411.859375 139.605469c-2.027344 0-4.027344.105469-6 .296875 30.4375 3.011718 54.214844 28.6875 54.214844 59.921875s-23.777344 56.90625-54.214844 59.917969c1.972656.195312 3.972656.300781 6 .300781 33.257813 0 60.214844-26.960938 60.214844-60.21875 0-33.257813-26.957031-60.21875-60.214844-60.21875zm0 0" fill="#e12579"/><path d="m92.140625 260.042969c2.027344 0 4.027344-.105469 6-.300781-30.4375-3.011719-54.214844-28.6875-54.214844-59.917969s23.777344-56.910157 54.214844-59.921875c-1.972656-.195313-3.972656-.296875-6-.296875-33.257813 0-60.214844 26.960937-60.214844 60.21875 0 33.253906 26.957031 60.21875 60.214844 60.21875zm0 0" fill="#99ca6f"/><path d="m446.570312 176.652344-11.3125-11.3125-23.398437 23.394531-23.398437-23.394531-11.316407 11.3125 23.402344 23.398437-23.402344 23.398438 11.316407 11.316406 23.398437-23.402344 23.398437 23.402344 11.3125-11.316406-23.398437-23.398438zm0 0" fill="#f4efed"/><path d="m411.859375 264.042969c-35.410156 0-64.21875-28.808594-64.21875-64.21875 0-35.410157 28.808594-64.21875 64.21875-64.21875s64.214844 28.808593 64.214844 64.21875c0 35.410156-28.804688 64.21875-64.214844 64.21875zm0-120.4375c-31 0-56.21875 25.21875-56.21875 56.214843 0 31 25.21875 56.21875 56.21875 56.21875s56.214844-25.21875 56.214844-56.21875-25.214844-56.214843-56.214844-56.214843zm0 0" fill="#690589"/><path d="m435.257812 238.765625c-1.058593 0-2.078124-.421875-2.828124-1.171875l-20.570313-20.574219-20.570313 20.570313c-.75.75-1.769531 1.171875-2.828124 1.171875-1.0625 0-2.078126-.421875-2.828126-1.171875l-11.3125-11.3125c-1.5625-1.5625-1.5625-4.09375 0-5.65625l20.570313-20.570313-20.570313-20.570312c-1.5625-1.5625-1.5625-4.09375 0-5.65625l11.3125-11.3125c1.5-1.5 4.15625-1.503907 5.65625 0l20.570313 20.566406 20.570313-20.566406c.75-.75 1.769531-1.171875 2.828124-1.171875 1.058594 0 2.078126.421875 2.828126 1.171875l11.3125 11.3125c1.5625 1.5625 1.5625 4.09375 0 5.65625l-20.570313 20.570312 20.570313 20.570313c1.5625 1.5625 1.5625 4.09375 0 5.65625l-11.3125 11.3125c-.75.753906-1.769532 1.175781-2.828126 1.175781zm-52.457031-15.316406 5.65625 5.65625 20.574219-20.570313c.75-.75 1.765625-1.171875 2.828125-1.171875 1.058594 0 2.078125.421875 2.828125 1.171875l20.570312 20.570313 5.652344-5.65625-20.566406-20.570313c-1.5625-1.5625-1.5625-4.09375 0-5.65625l20.566406-20.570312-5.652344-5.660156-20.570312 20.570312c-1.5 1.5-4.15625 1.503906-5.65625 0l-20.574219-20.570312-5.65625 5.660156 20.570313 20.570312c1.5625 1.5625 1.5625 4.09375 0 5.65625zm0 0" fill="#690589"/><path d="m92.140625 264.042969c-35.410156 0-64.214844-28.808594-64.214844-64.21875 0-35.410157 28.804688-64.21875 64.214844-64.21875s64.21875 28.804687 64.21875 64.214843c0 35.410157-28.808594 64.222657-64.21875 64.222657zm0-120.4375c-31 0-56.214844 25.21875-56.214844 56.214843 0 31 25.214844 56.21875 56.214844 56.21875s56.21875-25.21875 56.21875-56.21875-25.21875-56.214843-56.21875-56.214843zm0 0" fill="#690589"/><path d="m80.003906 234.0625-31.902344-30.238281 11.007813-11.609375 21.261719 20.15625 44.605468-39.476563 10.605469 11.984375zm0 0" fill="#f4efed"/><path d="m80.003906 238.0625c-.992187 0-1.984375-.367188-2.753906-1.09375l-31.898438-30.238281c-.773437-.730469-1.21875-1.738281-1.246093-2.796875-.03125-1.058594.363281-2.085938 1.09375-2.859375l11.007812-11.609375c1.519531-1.605469 4.054688-1.671875 5.65625-.152344l18.601563 17.636719 41.863281-37.046875c1.652344-1.464844 4.183594-1.308594 5.644531.34375l10.605469 11.980468c.707031.796876 1.0625 1.835938.996094 2.894532-.0625 1.0625-.542969 2.050781-1.339844 2.753906l-55.582031 49.183594c-.757813.671875-1.703125 1.003906-2.648438 1.003906zm-26.246094-34.386719 26.339844 24.964844 49.839844-44.105469-5.304688-5.992187-41.609374 36.824219c-1.550782 1.375-3.898438 1.332031-5.402344-.09375l-18.359375-17.40625zm0 0" fill="#690589"/></svg>